o Cylinder
v 0.000000 0.000000 -1.930000
v 0.000000 0.000000 1.930000
v 0.000000 1.000000 -1.930000
v 0.000000 1.000000 1.930000
v 0.342020 0.939693 -1.930000
v 0.342020 0.939693 1.930000
v 0.642788 0.766044 -1.930000
v 0.642788 0.766044 1.930000
v 0.866025 0.500000 -1.930000
v 0.866025 0.500000 1.930000
v 0.984808 0.173648 -1.930000
v 0.984808 0.173648 1.930000
v 0.984808 -0.173648 -1.930000
v 0.984808 -0.173648 1.930000
v 0.866025 -0.500000 -1.930000
v 0.866025 -0.500000 1.930000
v 0.642788 -0.766044 -1.930000
v 0.642788 -0.766044 1.930000
v 0.342020 -0.939693 -1.930000
v 0.342020 -0.939693 1.930000
v 0.000000 -1.000000 -1.930000
v 0.000000 -1.000000 1.930000
v -0.342020 -0.939693 -1.930000
v -0.342020 -0.939693 1.930000
v -0.642787 -0.766045 -1.930000
v -0.642787 -0.766045 1.930000
v -0.866025 -0.500000 -1.930000
v -0.866025 -0.500000 1.930000
v -0.984808 -0.173649 -1.930000
v -0.984808 -0.173649 1.930000
v -0.984808 0.173648 -1.930000
v -0.984808 0.173648 1.930000
v -0.866026 0.499999 -1.930000
v -0.866026 0.499999 1.930000
v -0.642788 0.766044 -1.930000
v -0.642788 0.766044 1.930000
v -0.342021 0.939692 -1.930000
v -0.342021 0.939692 1.930000
v 0.000000 1.000000 0.000000
v 0.342020 0.939693 0.000000
v 0.642788 0.766044 0.000000
v 0.866025 0.500000 0.000000
v 0.984808 0.173648 0.000000
v 0.984808 -0.173648 0.000000
v 0.866025 -0.500000 0.000000
v 0.642788 -0.766044 0.000000
v 0.342020 -0.939693 0.000000
v 0.000000 -1.000000 0.000000
v -0.342020 -0.939693 0.000000
v -0.642787 -0.766045 0.000000
v -0.866025 -0.500000 0.000000
v -0.984808 -0.173649 0.000000
v -0.984808 0.173648 0.000000
v -0.866026 0.499999 0.000000
v -0.642788 0.766044 0.000000
v -0.342021 0.939692 0.000000
vn 0.000000 0.000000 -1.000000
vn 0.000000 0.000000 1.000000
vn 0.000000 0.742332 -0.670003
vn 0.000000 0.742332 0.670003
vn 0.253883 0.697562 -0.670003
vn 0.253883 0.697562 0.670003
vn 0.477157 0.568651 -0.670003
vn 0.477157 0.568651 0.670003
vn 0.642872 0.371166 -0.670003
vn 0.642872 0.371166 0.670003
vn 0.731040 0.128880 -0.670003
vn 0.731040 0.128880 0.670003
vn 0.731040 -0.128880 -0.670003
vn 0.731040 -0.128880 0.670003
vn 0.642872 -0.371166 -0.670003
vn 0.642872 -0.371166 0.670003
vn 0.477157 -0.568651 -0.670003
vn 0.477157 -0.568651 0.670003
vn 0.253883 -0.697562 -0.670003
vn 0.253883 -0.697562 0.670003
vn 0.000000 -0.742332 -0.670003
vn 0.000000 -0.742332 0.670003
vn -0.253883 -0.697562 -0.670003
vn -0.253883 -0.697562 0.670003
vn -0.477157 -0.568651 -0.670003
vn -0.477157 -0.568651 0.670003
vn -0.642872 -0.371166 -0.670003
vn -0.642872 -0.371166 0.670003
vn -0.731040 -0.128880 -0.670003
vn -0.731040 -0.128880 0.670003
vn -0.731040 0.128880 -0.670003
vn -0.731040 0.128880 0.670003
vn -0.642872 0.371166 -0.670003
vn -0.642872 0.371166 0.670003
vn -0.477157 0.568651 -0.670003
vn -0.477157 0.568651 0.670003
vn -0.253883 0.697562 -0.670003
vn -0.253883 0.697562 0.670003
vn 0.000000 1.000000 0.000000
vn 0.341990 0.939665 0.000000
vn 0.642781 0.766015 0.000000
vn 0.866024 0.499985 0.000000
vn 0.984802 0.173620 0.000000
vn 0.984802 -0.173620 0.000000
vn 0.866024 -0.499985 0.000000
vn 0.642781 -0.766015 0.000000
vn 0.341990 -0.939665 0.000000
vn 0.000000 -1.000000 0.000000
vn -0.341990 -0.939665 0.000000
vn -0.642781 -0.766015 0.000000
vn -0.866024 -0.499985 0.000000
vn -0.984802 -0.173620 0.000000
vn -0.984802 0.173620 0.000000
vn -0.866024 0.499985 0.000000
vn -0.642781 0.766015 0.000000
vn -0.341990 0.939665 0.000000
vt 1.000000 -0.425529
vt 1.008881 -0.284490
vt 0.971967 -0.288934
vt 0.500000 1.425529
vt 0.903793 1.562124
vt 1.032173 1.566568
vt 1.032173 1.566568
vt 0.903793 1.562124
vt 0.956102 0.636595
vt 1.000000 -0.425529
vt 0.971967 -0.288934
vt 0.934937 -0.309854
vt 0.500000 1.425529
vt 0.812221 1.541204
vt 0.903793 1.562124
vt 0.903793 1.562124
vt 0.812221 1.541204
vt 0.899106 0.615675
vt 1.000000 -0.425529
vt 0.934937 -0.309854
vt 0.897527 -0.344725
vt 0.500000 1.425529
vt 0.750234 1.506333
vt 0.812221 1.541204
vt 0.812221 1.541204
vt 0.750234 1.506333
vt 0.843610 0.580804
vt 1.000000 -0.425529
vt 0.897527 -0.344725
vt 0.859192 -0.389343
vt 0.500000 1.425529
vt 0.701942 1.461715
vt 0.750234 1.506333
vt 0.750234 1.506333
vt 0.701942 1.461715
vt 0.789534 0.536186
vt 1.000000 -0.425529
vt 0.859192 -0.389343
vt 0.818817 -0.438325
vt 0.500000 1.425529
vt 0.659883 1.412733
vt 0.701942 1.461715
vt 0.701942 1.461715
vt 0.659883 1.412733
vt 0.736178 0.487204
vt 1.000000 -0.425529
vt 0.818817 -0.438325
vt 0.774114 -0.485764
vt 0.500000 1.425529
vt 0.620757 1.365294
vt 0.659883 1.412733
vt 0.659883 1.412733
vt 0.620757 1.365294
vt 0.682561 0.439765
vt 1.000000 -0.425529
vt 0.774114 -0.485764
vt 0.720085 -0.525938
vt 0.500000 1.425529
vt 0.582996 1.325120
vt 0.620757 1.365294
vt 0.620757 1.365294
vt 0.582996 1.325120
vt 0.627803 0.399591
vt 1.000000 -0.425529
vt 0.720085 -0.525938
vt 0.645308 -0.554001
vt 0.500000 1.425529
vt 0.545829 1.297057
vt 0.582996 1.325120
vt 0.582996 1.325120
vt 0.545829 1.297057
vt 0.571491 0.371528
vt 1.000000 -0.425529
vt 0.645308 -0.554001
vt 0.532173 -0.566568
vt 0.500000 1.425529
vt 0.508881 1.284490
vt 0.545829 1.297057
vt 0.545829 1.297057
vt 0.508881 1.284490
vt 0.513936 0.358961
vt 1.000000 -0.425529
vt 0.532173 -0.566568
vt 0.403793 -0.562124
vt 0.500000 1.425529
vt 0.471968 1.288934
vt 0.508881 1.284490
vt 0.508881 1.284490
vt 0.471968 1.288934
vt 0.456103 0.363405
vt 0.000000 -0.425529
vt 0.403793 -0.562124
vt 0.312221 -0.541204
vt 0.500000 1.425529
vt 0.434937 1.309854
vt 0.471968 1.288934
vt 0.471968 1.288934
vt 0.434937 1.309854
vt 0.399106 0.384325
vt 0.000000 -0.425529
vt 0.312221 -0.541204
vt 0.250234 -0.506333
vt 0.500000 1.425529
vt 0.397527 1.344725
vt 0.434937 1.309854
vt 0.434937 1.309854
vt 0.397527 1.344725
vt 0.343610 0.419196
vt 0.000000 -0.425529
vt 0.250234 -0.506333
vt 0.201942 -0.461715
vt 0.500000 1.425529
vt 0.359192 1.389343
vt 0.397527 1.344725
vt 0.397527 1.344725
vt 0.359192 1.389343
vt 0.289534 0.463814
vt 0.000000 -0.425529
vt 0.201942 -0.461715
vt 0.159883 -0.412733
vt 0.500000 1.425529
vt 0.318817 1.438325
vt 0.359192 1.389343
vt 0.359192 1.389343
vt 0.318817 1.438325
vt 0.236178 0.512796
vt 0.000000 -0.425529
vt 0.159883 -0.412733
vt 0.120757 -0.365294
vt 0.500000 1.425529
vt 0.274114 1.485764
vt 0.318817 1.438325
vt 0.318817 1.438325
vt 0.274114 1.485764
vt 0.182561 0.560235
vt 0.000000 -0.425529
vt 0.120757 -0.365294
vt 0.082996 -0.325120
vt 0.500000 1.425529
vt 0.220085 1.525938
vt 0.274114 1.485764
vt 0.274114 1.485764
vt 0.220085 1.525938
vt 0.127803 0.600409
vt 0.000000 -0.425529
vt 0.082996 -0.325120
vt 0.045829 -0.297057
vt 0.500000 1.425529
vt 0.145308 1.554001
vt 0.220085 1.525938
vt 0.220085 1.525938
vt 0.145308 1.554001
vt 0.071491 0.628472
vt 0.000000 -0.425529
vt 0.045829 -0.297057
vt 0.008881 -0.284490
vt 0.500000 1.425529
vt 0.032173 1.566568
vt 0.145308 1.554001
vt 0.145308 1.554001
vt 0.032173 1.566568
vt 0.013936 0.641039
vt 0.071491 0.628472
vt 0.013936 0.641039
vt 0.008881 -0.284490
vt 0.127803 0.600409
vt 0.071491 0.628472
vt 0.045829 -0.297057
vt 0.182561 0.560235
vt 0.127803 0.600409
vt 0.082996 -0.325120
vt 0.236178 0.512796
vt 0.182561 0.560235
vt 0.120757 -0.365294
vt 0.289534 0.463814
vt 0.236178 0.512796
vt 0.159883 -0.412733
vt 0.343610 0.419196
vt 0.289534 0.463814
vt 0.201942 -0.461715
vt 0.399106 0.384325
vt 0.343610 0.419196
vt 0.250234 -0.506333
vt 0.456103 0.363405
vt 0.399106 0.384325
vt 0.312221 -0.541204
vt 0.513936 0.358961
vt 0.456103 0.363405
vt 0.403793 -0.562124
vt 0.571491 0.371528
vt 0.513936 0.358961
vt 0.532173 -0.566568
vt 0.627803 0.399591
vt 0.571491 0.371528
vt 0.645308 -0.554001
vt 0.682561 0.439765
vt 0.627803 0.399591
vt 0.720085 -0.525938
vt 0.736178 0.487204
vt 0.682561 0.439765
vt 0.774114 -0.485764
vt 0.789534 0.536186
vt 0.736178 0.487204
vt 0.818817 -0.438325
vt 0.843610 0.580804
vt 0.789534 0.536186
vt 0.859192 -0.389343
vt 0.899106 0.615675
vt 0.843610 0.580804
vt 0.897527 -0.344725
vt 0.956102 0.636595
vt 0.899106 0.615675
vt 0.934937 -0.309854
vt 1.013936 0.641039
vt 0.956102 0.636595
vt 0.971967 -0.288934
vt 1.013936 0.641039
vt 1.032173 1.566568
vt 0.956102 0.636595
vt 0.956102 0.636595
vt 0.903793 1.562124
vt 0.899106 0.615675
vt 0.899106 0.615675
vt 0.812221 1.541204
vt 0.843610 0.580804
vt 0.843610 0.580804
vt 0.750234 1.506333
vt 0.789534 0.536186
vt 0.789534 0.536186
vt 0.701942 1.461715
vt 0.736178 0.487204
vt 0.736178 0.487204
vt 0.659883 1.412733
vt 0.682561 0.439765
vt 0.682561 0.439765
vt 0.620757 1.365294
vt 0.627803 0.399591
vt 0.627803 0.399591
vt 0.582996 1.325120
vt 0.571491 0.371528
vt 0.571491 0.371528
vt 0.545829 1.297057
vt 0.513936 0.358961
vt 0.513936 0.358961
vt 0.508881 1.284490
vt 0.456103 0.363405
vt 0.456103 0.363405
vt 0.471968 1.288934
vt 0.399106 0.384325
vt 0.399106 0.384325
vt 0.434937 1.309854
vt 0.343610 0.419196
vt 0.343610 0.419196
vt 0.397527 1.344725
vt 0.289534 0.463814
vt 0.289534 0.463814
vt 0.359192 1.389343
vt 0.236178 0.512796
vt 0.236178 0.512796
vt 0.318817 1.438325
vt 0.182561 0.560235
vt 0.182561 0.560235
vt 0.274114 1.485764
vt 0.127803 0.600409
vt 0.127803 0.600409
vt 0.220085 1.525938
vt 0.071491 0.628472
vt 0.071491 0.628472
vt 0.145308 1.554001
vt 0.013936 0.641039
vt 0.045829 -0.297057
vt 0.071491 0.628472
vt 0.008881 -0.284490
vt 0.082996 -0.325120
vt 0.127803 0.600409
vt 0.045829 -0.297057
vt 0.120757 -0.365294
vt 0.182561 0.560235
vt 0.082996 -0.325120
vt 0.159883 -0.412733
vt 0.236178 0.512796
vt 0.120757 -0.365294
vt 0.201942 -0.461715
vt 0.289534 0.463814
vt 0.159883 -0.412733
vt 0.250234 -0.506333
vt 0.343610 0.419196
vt 0.201942 -0.461715
vt 0.312221 -0.541204
vt 0.399106 0.384325
vt 0.250234 -0.506333
vt 0.403793 -0.562124
vt 0.456103 0.363405
vt 0.312221 -0.541204
vt 0.532173 -0.566568
vt 0.513936 0.358961
vt 0.403793 -0.562124
vt 0.645308 -0.554001
vt 0.571491 0.371528
vt 0.532173 -0.566568
vt 0.720085 -0.525938
vt 0.627803 0.399591
vt 0.645308 -0.554001
vt 0.774114 -0.485764
vt 0.682561 0.439765
vt 0.720085 -0.525938
vt 0.818817 -0.438325
vt 0.736178 0.487204
vt 0.774114 -0.485764
vt 0.859192 -0.389343
vt 0.789534 0.536186
vt 0.818817 -0.438325
vt 0.897527 -0.344725
vt 0.843610 0.580804
vt 0.859192 -0.389343
vt 0.934937 -0.309854
vt 0.899106 0.615675
vt 0.897527 -0.344725
vt 0.971967 -0.288934
vt 0.956102 0.636595
vt 0.934937 -0.309854
vt 1.008881 -0.284490
vt 1.013936 0.641039
vt 0.971967 -0.288934
g Base 1/3/5/7/9/11/13/15/17/19/21/23/25/27/29/31/33/35/37/39/40/41/42/43/44/45/46/47/48/49/50/51/52/53/54/55/56
g Top 2/4/6/8/10/12/14/16/18/20/22/24/26/28/30/32/34/36/38
f 1/1/1 3/2/3 5/3/5
f 2/4/2 6/5/6 4/6/4
f 4/6/4 6/5/6 40/9/40
f 1/1/1 5/3/5 7/12/7
f 2/4/2 8/14/8 6/5/6
f 6/5/6 8/14/8 41/18/41
f 1/1/1 7/12/7 9/21/9
f 2/4/2 10/23/10 8/14/8
f 8/14/8 10/23/10 42/27/42
f 1/1/1 9/21/9 11/30/11
f 2/4/2 12/32/12 10/23/10
f 10/23/10 12/32/12 43/36/43
f 1/1/1 11/30/11 13/39/13
f 2/4/2 14/41/14 12/32/12
f 12/32/12 14/41/14 44/45/44
f 1/1/1 13/39/13 15/48/15
f 2/4/2 16/50/16 14/41/14
f 14/41/14 16/50/16 45/54/45
f 1/1/1 15/48/15 17/57/17
f 2/4/2 18/59/18 16/50/16
f 16/50/16 18/59/18 46/63/46
f 1/1/1 17/57/17 19/66/19
f 2/4/2 20/68/20 18/59/18
f 18/59/18 20/68/20 47/72/47
f 1/1/1 19/66/19 21/75/21
f 2/4/2 22/77/22 20/68/20
f 20/68/20 22/77/22 48/81/48
f 1/1/1 21/75/21 23/84/23
f 2/4/2 24/86/24 22/77/22
f 22/77/22 24/86/24 49/90/49
f 1/91/1 23/84/23 25/93/25
f 2/4/2 26/95/26 24/86/24
f 24/86/24 26/95/26 50/99/50
f 1/91/1 25/93/25 27/102/27
f 2/4/2 28/104/28 26/95/26
f 26/95/26 28/104/28 51/108/51
f 1/91/1 27/102/27 29/111/29
f 2/4/2 30/113/30 28/104/28
f 28/104/28 30/113/30 52/117/52
f 1/91/1 29/111/29 31/120/31
f 2/4/2 32/122/32 30/113/30
f 30/113/30 32/122/32 53/126/53
f 1/91/1 31/120/31 33/129/33
f 2/4/2 34/131/34 32/122/32
f 32/122/32 34/131/34 54/135/54
f 1/91/1 33/129/33 35/138/35
f 2/4/2 36/140/36 34/131/34
f 34/131/34 36/140/36 55/144/55
f 1/91/1 35/138/35 37/147/37
f 2/4/2 38/149/38 36/140/36
f 36/140/36 38/149/38 56/153/56
f 1/91/1 37/147/37 3/156/3
f 2/4/2 4/158/4 38/149/38
f 38/149/38 4/158/4 39/162/39
f 56/153/56 39/162/39 3/156/3
f 55/144/55 56/153/56 37/147/37
f 54/135/54 55/144/55 35/138/35
f 53/126/53 54/135/54 33/129/33
f 52/117/52 53/126/53 31/120/31
f 51/108/51 52/117/52 29/111/29
f 50/99/50 51/108/51 27/102/27
f 49/90/49 50/99/50 25/93/25
f 48/81/48 49/90/49 23/84/23
f 47/72/47 48/81/48 21/75/21
f 46/63/46 47/72/47 19/66/19
f 45/54/45 46/63/46 17/57/17
f 44/45/44 45/54/45 15/48/15
f 43/36/43 44/45/44 13/39/13
f 42/27/42 43/36/43 11/30/11
f 41/18/41 42/27/42 9/21/9
f 40/9/40 41/18/41 7/12/7
f 39/214/39 40/9/40 5/3/5
f 39/214/39 4/6/4 40/9/40
f 40/9/40 6/5/6 41/18/41
f 41/18/41 8/14/8 42/27/42
f 42/27/42 10/23/10 43/36/43
f 43/36/43 12/32/12 44/45/44
f 44/45/44 14/41/14 45/54/45
f 45/54/45 16/50/16 46/63/46
f 46/63/46 18/59/18 47/72/47
f 47/72/47 20/68/20 48/81/48
f 48/81/48 22/77/22 49/90/49
f 49/90/49 24/86/24 50/99/50
f 50/99/50 26/95/26 51/108/51
f 51/108/51 28/104/28 52/117/52
f 52/117/52 30/113/30 53/126/53
f 53/126/53 32/122/32 54/135/54
f 54/135/54 34/131/34 55/144/55
f 55/144/55 36/140/36 56/153/56
f 56/153/56 38/149/38 39/162/39
f 37/147/37 56/153/56 3/156/3
f 35/138/35 55/144/55 37/147/37
f 33/129/33 54/135/54 35/138/35
f 31/120/31 53/126/53 33/129/33
f 29/111/29 52/117/52 31/120/31
f 27/102/27 51/108/51 29/111/29
f 25/93/25 50/99/50 27/102/27
f 23/84/23 49/90/49 25/93/25
f 21/75/21 48/81/48 23/84/23
f 19/66/19 47/72/47 21/75/21
f 17/57/17 46/63/46 19/66/19
f 15/48/15 45/54/45 17/57/17
f 13/39/13 44/45/44 15/48/15
f 11/30/11 43/36/43 13/39/13
f 9/21/9 42/27/42 11/30/11
f 7/12/7 41/18/41 9/21/9
f 5/3/5 40/9/40 7/12/7
f 3/2/3 39/214/39 5/3/5