# Blender v2.77 (sub 0) OBJ File: ''
# www.blender.org
mtllib CubeSphere.mtl
o Cube_Cube.001
v -1.000000 -1.000000 -1.000000
v -1.000000 -1.000000 1.000000
v -1.000000 1.000000 -1.000000
v -1.000000 1.000000 1.000000
v 1.000000 -1.000000 -1.000000
v 1.000000 -1.000000 1.000000
v 1.000000 1.000000 -1.000000
v 1.000000 1.000000 1.000000
v 0.000000 0.000000 -0.703032
v 0.508714 -0.369598 -0.314407
v -0.194308 -0.598027 -0.314407
v -0.628810 0.000000 -0.314407
v -0.194308 0.598027 -0.314407
v 0.508714 0.369598 -0.314407
v 0.194308 -0.598027 0.314407
v -0.508714 -0.369598 0.314407
v -0.508714 0.369598 0.314407
v 0.194308 0.598027 0.314407
v 0.628810 0.000000 0.314407
v 0.000000 0.000000 0.703032
vn -1.0000 0.0000 0.0000
vn 0.0000 1.0000 0.0000
vn 1.0000 0.0000 0.0000
vn 0.0000 -1.0000 0.0000
vn 0.0000 0.0000 -1.0000
vn 0.0000 0.0000 1.0000
vn 0.1876 -0.5774 -0.7947
vn 0.6071 0.0000 -0.7947
vn -0.4911 -0.3568 -0.7947
vn -0.4911 0.3568 -0.7947
vn 0.1876 0.5774 -0.7947
vn 0.9822 0.0000 -0.1876
vn 0.3035 -0.9342 -0.1876
vn -0.7946 -0.5774 -0.1876
vn -0.7946 0.5774 -0.1876
vn 0.3035 0.9342 -0.1876
vn 0.7946 -0.5774 0.1876
vn -0.3035 -0.9342 0.1876
vn -0.9822 0.0000 0.1876
vn -0.3035 0.9342 0.1876
vn 0.7946 0.5774 0.1876
vn 0.4911 -0.3568 0.7947
vn -0.1876 -0.5774 0.7947
vn -0.6071 0.0000 0.7947
vn -0.1876 0.5774 0.7947
vn 0.4911 0.3568 0.7947
usemtl None
s off
f 4//1 1//1 2//1
f 8//2 3//2 4//2
f 6//3 7//3 8//3
f 2//4 5//4 6//4
f 3//5 5//5 1//5
f 8//6 2//6 6//6
f 9//7 10//7 11//7
f 10//8 9//8 14//8
f 9//9 11//9 12//9
f 9//10 12//10 13//10
f 9//11 13//11 14//11
f 10//12 14//12 19//12
f 11//13 10//13 15//13
f 12//14 11//14 16//14
f 13//15 12//15 17//15
f 14//16 13//16 18//16
f 10//17 19//17 15//17
f 11//18 15//18 16//18
f 12//19 16//19 17//19
f 13//20 17//20 18//20
f 14//21 18//21 19//21
f 15//22 19//22 20//22
f 16//23 15//23 20//23
f 17//24 16//24 20//24
f 18//25 17//25 20//25
f 19//26 18//26 20//26
f 4//1 3//1 1//1
f 8//2 7//2 3//2
f 6//3 5//3 7//3
f 2//4 1//4 5//4
f 3//5 7//5 5//5
f 8//6 4//6 2//6
