# Blender v2.76 (sub 0) OBJ File: ''
# www.blender.org
mtllib DICK.mtl
o Icosphere
v -0.039340 -1.714015 0.721482
v 1.634697 -0.435180 1.937726
v -0.678752 -0.435181 2.689425
v -2.108558 -0.435171 0.721482
v -0.678752 -0.435181 -1.246460
v 1.634697 -0.435180 -0.494762
v 0.311344 4.712924 0.958235
v -0.815126 4.712924 0.592217
v -0.815126 4.712924 -0.592217
v 0.311344 4.712924 -0.958235
v 1.007549 4.712919 0.000000
v -0.000000 7.026264 0.000000
v -0.415174 -1.368510 1.878201
v 0.944627 -1.368510 1.436368
v 0.568797 -0.616829 2.593098
v 1.928600 -0.616825 0.721482
v 0.944627 -1.368510 0.006597
v -1.255594 -1.368504 0.721482
v -1.631438 -0.616825 1.878205
v -0.415174 -1.368510 -0.435236
v -1.631438 -0.616825 -0.435240
v 0.568797 -0.616829 -1.150133
v 2.160894 0.599444 1.436370
v 2.160894 0.599444 0.006594
v -0.039340 0.599444 3.034942
v 1.320479 0.599444 2.593110
v -2.239573 0.599444 1.436370
v -1.399158 0.599444 2.593110
v -1.399158 0.599444 -1.150145
v -2.239573 0.599444 0.006594
v 1.320479 0.599444 -1.150145
v -0.039340 0.599444 -1.591977
v 0.775229 4.801371 0.563234
v -0.296115 4.801372 0.911332
v -0.958234 4.801370 0.000000
v -0.296115 4.801372 -0.911332
v 0.775229 4.801371 -0.563234
v 1.765538 5.935105 0.000000
v 0.545571 5.935113 -1.679125
v -1.428353 5.935113 -1.037747
v -1.428353 5.935113 1.037747
v 0.545571 5.935113 1.679125
v -2.640475 -2.772617 -0.942636
v -0.966439 -1.493782 0.273608
v -3.279888 -1.493783 1.025306
v -4.709694 -1.493773 -0.942636
v -3.279888 -1.493783 -2.910579
v -0.966439 -1.493782 -2.158880
v -2.001063 0.575467 1.025306
v -4.314511 0.575467 0.273608
v -4.314511 0.575467 -2.158880
v -2.001063 0.575467 -2.910579
v -0.571257 0.575458 -0.942636
v -2.640475 1.854302 -0.942636
v -3.016310 -2.427112 0.214083
v -1.656509 -2.427111 -0.227751
v -2.032339 -1.675430 0.928979
v -0.672536 -1.675426 -0.942636
v -1.656509 -2.427111 -1.657521
v -3.856730 -2.427106 -0.942636
v -4.232574 -1.675427 0.214086
v -3.016310 -2.427112 -2.099355
v -4.232574 -1.675427 -2.099359
v -2.032339 -1.675430 -2.814252
v -0.440242 -0.459157 -0.227748
v -0.440242 -0.459157 -1.657524
v -2.640475 -0.459157 1.370823
v -1.280657 -0.459157 0.928991
v -4.840709 -0.459157 -0.227748
v -4.000293 -0.459157 0.928991
v -4.000293 -0.459157 -2.814263
v -4.840709 -0.459157 -1.657524
v -1.280657 -0.459157 -2.814263
v -2.640475 -0.459157 -3.256095
v -1.048377 0.757112 0.214086
v -3.248611 0.757115 0.928979
v -4.608415 0.757111 -0.942636
v -3.248611 0.757115 -2.814252
v -1.048377 0.757112 -2.099359
v -2.264641 1.508797 0.214083
v -1.424221 1.508790 -0.942636
v -3.624442 1.508796 -0.227751
v -3.624442 1.508796 -1.657521
v -2.264641 1.508797 -2.099355
v 2.743271 -2.863354 -0.942636
v 4.417307 -1.584519 0.273608
v 2.103858 -1.584520 1.025306
v 0.674052 -1.584510 -0.942636
v 2.103858 -1.584520 -2.910579
v 4.417307 -1.584519 -2.158880
v 3.382684 0.484730 1.025306
v 1.069235 0.484729 0.273608
v 1.069235 0.484729 -2.158880
v 3.382684 0.484730 -2.910579
v 4.812490 0.484720 -0.942636
v 2.743271 1.763565 -0.942636
v 2.367437 -2.517849 0.214083
v 3.727238 -2.517849 -0.227751
v 3.351407 -1.766168 0.928979
v 4.711210 -1.766164 -0.942636
v 3.727238 -2.517849 -1.657521
v 1.527017 -2.517843 -0.942636
v 1.151173 -1.766164 0.214086
v 2.367437 -2.517849 -2.099355
v 1.151173 -1.766164 -2.099359
v 3.351407 -1.766168 -2.814252
v 4.943505 -0.549895 -0.227748
v 4.943505 -0.549895 -1.657524
v 2.743271 -0.549895 1.370823
v 4.103089 -0.549895 0.928991
v 0.543037 -0.549895 -0.227748
v 1.383453 -0.549895 0.928991
v 1.383453 -0.549895 -2.814263
v 0.543037 -0.549895 -1.657524
v 4.103089 -0.549895 -2.814263
v 2.743271 -0.549895 -3.256095
v 4.335369 0.666375 0.214086
v 2.135135 0.666378 0.928979
v 0.775332 0.666374 -0.942636
v 2.135135 0.666378 -2.814252
v 4.335369 0.666375 -2.099359
v 3.119105 1.418060 0.214083
v 3.959526 1.418053 -0.942636
v 1.759304 1.418059 -0.227751
v 1.759304 1.418059 -1.657521
v 3.119105 1.418060 -2.099355
v 0.545573 4.760321 1.679125
v -1.428351 4.760321 1.037747
v -1.428351 4.760321 -1.037747
v 0.545573 4.760321 -1.679125
v 1.765539 4.760313 0.000000
v 1.358441 4.915308 0.986961
v -0.518884 4.915310 1.596935
v -1.679121 4.915306 0.000000
v -0.518884 4.915310 -1.596935
v 1.358441 4.915308 -0.986961
v 1.358440 6.090100 0.986961
v -0.518886 6.090102 1.596935
v -1.679122 6.090098 0.000000
v -0.518886 6.090102 -1.596935
v 1.358440 6.090100 -0.986961
v 0.320676 6.731466 0.986957
v 1.037755 6.731461 0.000000
v -0.839559 6.731466 0.609968
v -0.839559 6.731466 -0.609968
v 0.320676 6.731466 -0.986957
vn 0.102400 -0.943500 0.315100
vn 0.700200 -0.661700 0.268000
vn -0.268000 -0.943500 0.194700
vn -0.268000 -0.943500 -0.194700
vn 0.102400 -0.943500 -0.315100
vn 0.905000 -0.330400 0.268000
vn 0.024700 -0.330400 0.943500
vn -0.889700 -0.330400 0.315100
vn -0.574600 -0.330400 -0.748800
vn 0.534600 -0.330400 -0.777900
vn 0.802600 -0.125600 0.583100
vn -0.306600 -0.125600 0.943500
vn -0.992100 -0.125600 0.000000
vn -0.306600 -0.125600 -0.943500
vn 0.802600 -0.125600 -0.583100
vn -0.187600 0.794700 -0.577300
vn -0.102400 0.943500 -0.315100
vn 0.408900 0.661700 -0.628400
vn 0.491100 0.794700 -0.356800
vn 0.268000 0.943500 -0.194700
vn 0.724000 0.661700 -0.194700
vn 0.038500 0.661700 -0.748800
vn -0.700200 0.661700 -0.268000
vn -0.471300 0.661700 0.583100
vn 0.408900 0.661700 0.628400
vn -0.155200 -0.981800 -0.109100
vn 0.055800 -0.981800 0.181300
vn 0.061400 -0.981800 -0.179500
vn -0.151800 -0.981800 0.113900
vn 0.189700 -0.981800 0.002900
vn 0.189700 -0.981800 -0.002900
vn -0.151800 -0.981800 -0.113900
vn 0.061400 -0.981800 0.179500
vn 0.055800 -0.981800 -0.181300
vn -0.155200 -0.981800 0.109100
vn 0.907600 0.253900 -0.334500
vn 0.795200 0.183900 -0.577800
vn 0.616000 0.186800 -0.765300
vn -0.053400 0.156500 -0.986200
vn -0.306200 0.134000 -0.942500
vn -0.537500 0.187800 -0.822100
vn -0.922500 0.280900 -0.264900
vn -0.956500 0.291700 0.000000
vn -0.891400 0.364100 0.269800
vn -0.524700 0.431500 0.733800
vn -0.280600 0.419200 0.863400
vn -0.003300 0.450900 0.892600
vn 0.539800 0.421900 0.728400
vn 0.754000 0.362500 0.547800
vn 0.882500 0.355100 0.308300
vn 0.306800 0.119300 -0.944300
vn 0.303500 -0.187600 -0.934200
vn 0.024700 -0.330400 -0.943500
vn -0.794100 0.191000 -0.577000
vn -0.794700 -0.187600 -0.577300
vn -0.889700 -0.330400 -0.315100
vn -0.751000 0.372000 0.545600
vn -0.794700 -0.187600 0.577300
vn -0.574600 -0.330400 0.748800
vn 0.281400 0.413200 0.866100
vn 0.303500 -0.187600 0.934200
vn 0.534600 -0.330400 0.777900
vn 0.962900 0.270000 0.000000
vn 0.982200 -0.187600 0.000000
vn 0.905000 -0.330400 -0.268000
vn 0.471300 -0.661700 -0.583100
vn 0.187600 -0.794700 -0.577300
vn -0.038500 -0.661700 -0.748800
vn -0.408900 -0.661700 -0.628400
vn -0.491100 -0.794700 -0.356800
vn -0.724000 -0.661700 -0.194700
vn -0.724000 -0.661700 0.194700
vn -0.491100 -0.794700 0.356800
vn -0.408900 -0.661700 0.628400
vn 0.700200 -0.661700 -0.268000
vn 0.607100 -0.794700 0.000000
vn 0.331300 -0.943500 0.000000
vn -0.038500 -0.661700 0.748800
vn 0.187600 -0.794700 0.577300
vn 0.471300 -0.661700 0.583100
vn -0.471300 0.661700 -0.583100
vn -0.331300 0.943500 0.000000
vn -0.607100 0.794700 0.000000
vn -0.700200 0.661700 0.268000
vn -0.102400 0.943500 0.315100
vn -0.187600 0.794700 0.577300
vn 0.038500 0.661700 0.748800
vn 0.268000 0.943500 0.194700
vn 0.491100 0.794700 0.356800
vn 0.724000 0.661700 0.194700
vn 0.889700 0.330400 -0.315100
vn 0.794700 0.187600 -0.577300
vn 0.574600 0.330400 -0.748800
vn -0.024700 0.330400 -0.943500
vn -0.303500 0.187600 -0.934200
vn -0.534600 0.330400 -0.777900
vn -0.905000 0.330400 -0.268000
vn -0.982200 0.187600 0.000000
vn -0.905000 0.330400 0.268000
vn -0.534600 0.330400 0.777900
vn -0.303500 0.187600 0.934200
vn -0.024700 0.330400 0.943500
vn 0.574600 0.330400 0.748800
vn 0.794700 0.187600 0.577300
vn 0.889700 0.330400 0.315100
vn 0.306600 0.125600 -0.943500
vn -0.802600 0.125600 -0.583100
vn -0.802600 0.125600 0.583100
vn 0.306600 0.125600 0.943500
vn 0.992100 0.125600 0.000000
vn -0.972000 -0.000000 0.234900
vn -0.523800 -0.000000 0.851900
vn -0.077000 -0.000000 0.997000
vn 0.924400 0.000000 -0.381300
vn 0.648300 0.000000 -0.761400
vn 0.648300 0.000000 0.761400
vn 0.924400 0.000000 0.381300
vn -0.077000 -0.000000 -0.997000
vn -0.523800 -0.000000 -0.851900
vn -0.972000 -0.000000 -0.234900
usemtl None
s off
f 1//1 14//1 13//1
f 2//2 14//2 16//2
f 1//3 13//3 18//3
f 1//4 18//4 20//4
f 1//5 20//5 17//5
f 2//6 16//6 23//6
f 3//7 15//7 25//7
f 4//8 19//8 27//8
f 5//9 21//9 29//9
f 6//10 22//10 31//10
f 2//11 23//11 26//11
f 3//12 25//12 28//12
f 4//13 27//13 30//13
f 5//14 29//14 32//14
f 6//15 31//15 24//15
f 146//16 140//16 145//16
f 146//17 145//17 12//17
f 141//18 39//18 146//18
f 143//19 141//19 146//19
f 143//20 146//20 12//20
f 38//21 141//21 143//21
f 39//22 140//22 146//22
f 40//23 139//23 145//23
f 41//24 138//24 144//24
f 42//25 137//25 142//25
f 35//26 8//26 128//26 134//26
f 8//27 34//27 133//27 128//27
f 11//28 37//28 136//28 131//28
f 34//29 7//29 127//29 133//29
f 7//30 33//30 132//30 127//30
f 37//31 10//31 130//31 136//31
f 10//32 36//32 135//32 130//32
f 33//33 11//33 131//33 132//33
f 36//34 9//34 129//34 135//34
f 9//35 35//35 134//35 129//35
f 24//36 37//36 11//36
f 24//37 31//37 37//37
f 31//38 10//38 37//38
f 32//39 36//39 10//39
f 32//40 29//40 36//40
f 29//41 9//41 36//41
f 30//42 35//42 9//42
f 30//43 27//43 35//43
f 27//44 8//44 35//44
f 28//45 34//45 8//45
f 28//46 25//46 34//46
f 25//47 7//47 34//47
f 26//48 33//48 7//48
f 26//49 23//49 33//49
f 23//50 11//50 33//50
f 31//51 32//51 10//51
f 31//52 22//52 32//52
f 22//53 5//53 32//53
f 29//54 30//54 9//54
f 29//55 21//55 30//55
f 21//56 4//56 30//56
f 27//57 28//57 8//57
f 27//58 19//58 28//58
f 19//59 3//59 28//59
f 25//60 26//60 7//60
f 25//61 15//61 26//61
f 15//62 2//62 26//62
f 23//63 24//63 11//63
f 23//64 16//64 24//64
f 16//65 6//65 24//65
f 17//66 22//66 6//66
f 17//67 20//67 22//67
f 20//68 5//68 22//68
f 20//69 21//69 5//69
f 20//70 18//70 21//70
f 18//71 4//71 21//71
f 18//72 19//72 4//72
f 18//73 13//73 19//73
f 13//74 3//74 19//74
f 16//75 17//75 6//75
f 16//76 14//76 17//76
f 14//77 1//77 17//77
f 13//78 15//78 3//78
f 13//79 14//79 15//79
f 14//80 2//80 15//80
f 43//1 56//1 55//1
f 44//2 56//2 58//2
f 43//3 55//3 60//3
f 43//4 60//4 62//4
f 43//5 62//5 59//5
f 44//6 58//6 65//6
f 45//7 57//7 67//7
f 46//8 61//8 69//8
f 47//9 63//9 71//9
f 48//10 64//10 73//10
f 44//11 65//11 68//11
f 45//12 67//12 70//12
f 46//13 69//13 72//13
f 47//14 71//14 74//14
f 48//15 73//15 66//15
f 49//25 75//25 80//25
f 50//24 76//24 82//24
f 51//23 77//23 83//23
f 52//22 78//22 84//22
f 53//21 79//21 81//21
f 81//20 84//20 54//20
f 81//19 79//19 84//19
f 79//18 52//18 84//18
f 84//17 83//17 54//17
f 84//16 78//16 83//16
f 78//81 51//81 83//81
f 83//82 82//82 54//82
f 83//83 77//83 82//83
f 77//84 50//84 82//84
f 82//85 80//85 54//85
f 82//86 76//86 80//86
f 76//87 49//87 80//87
f 80//88 81//88 54//88
f 80//89 75//89 81//89
f 75//90 53//90 81//90
f 66//91 79//91 53//91
f 66//92 73//92 79//92
f 73//93 52//93 79//93
f 74//94 78//94 52//94
f 74//95 71//95 78//95
f 71//96 51//96 78//96
f 72//97 77//97 51//97
f 72//98 69//98 77//98
f 69//99 50//99 77//99
f 70//100 76//100 50//100
f 70//101 67//101 76//101
f 67//102 49//102 76//102
f 68//103 75//103 49//103
f 68//104 65//104 75//104
f 65//105 53//105 75//105
f 73//106 74//106 52//106
f 73//52 64//52 74//52
f 64//53 47//53 74//53
f 71//107 72//107 51//107
f 71//55 63//55 72//55
f 63//56 46//56 72//56
f 69//108 70//108 50//108
f 69//58 61//58 70//58
f 61//59 45//59 70//59
f 67//109 68//109 49//109
f 67//61 57//61 68//61
f 57//62 44//62 68//62
f 65//110 66//110 53//110
f 65//64 58//64 66//64
f 58//65 48//65 66//65
f 59//66 64//66 48//66
f 59//67 62//67 64//67
f 62//68 47//68 64//68
f 62//69 63//69 47//69
f 62//70 60//70 63//70
f 60//71 46//71 63//71
f 60//72 61//72 46//72
f 60//73 55//73 61//73
f 55//74 45//74 61//74
f 58//75 59//75 48//75
f 58//76 56//76 59//76
f 56//77 43//77 59//77
f 55//78 57//78 45//78
f 55//79 56//79 57//79
f 56//80 44//80 57//80
f 85//1 98//1 97//1
f 86//2 98//2 100//2
f 85//3 97//3 102//3
f 85//4 102//4 104//4
f 85//5 104//5 101//5
f 86//6 100//6 107//6
f 87//7 99//7 109//7
f 88//8 103//8 111//8
f 89//9 105//9 113//9
f 90//10 106//10 115//10
f 86//11 107//11 110//11
f 87//12 109//12 112//12
f 88//13 111//13 114//13
f 89//14 113//14 116//14
f 90//15 115//15 108//15
f 91//25 117//25 122//25
f 92//24 118//24 124//24
f 93//23 119//23 125//23
f 94//22 120//22 126//22
f 95//21 121//21 123//21
f 123//20 126//20 96//20
f 123//19 121//19 126//19
f 121//18 94//18 126//18
f 126//17 125//17 96//17
f 126//16 120//16 125//16
f 120//81 93//81 125//81
f 125//82 124//82 96//82
f 125//83 119//83 124//83
f 119//84 92//84 124//84
f 124//85 122//85 96//85
f 124//86 118//86 122//86
f 118//87 91//87 122//87
f 122//88 123//88 96//88
f 122//89 117//89 123//89
f 117//90 95//90 123//90
f 108//91 121//91 95//91
f 108//92 115//92 121//92
f 115//93 94//93 121//93
f 116//94 120//94 94//94
f 116//95 113//95 120//95
f 113//96 93//96 120//96
f 114//97 119//97 93//97
f 114//98 111//98 119//98
f 111//99 92//99 119//99
f 112//100 118//100 92//100
f 112//101 109//101 118//101
f 109//102 91//102 118//102
f 110//103 117//103 91//103
f 110//104 107//104 117//104
f 107//105 95//105 117//105
f 115//106 116//106 94//106
f 115//52 106//52 116//52
f 106//53 89//53 116//53
f 113//107 114//107 93//107
f 113//55 105//55 114//55
f 105//56 88//56 114//56
f 111//108 112//108 92//108
f 111//58 103//58 112//58
f 103//59 87//59 112//59
f 109//109 110//109 91//109
f 109//61 99//61 110//61
f 99//62 86//62 110//62
f 107//110 108//110 95//110
f 107//64 100//64 108//64
f 100//65 90//65 108//65
f 101//66 106//66 90//66
f 101//67 104//67 106//67
f 104//68 89//68 106//68
f 104//69 105//69 89//69
f 104//70 102//70 105//70
f 102//71 88//71 105//71
f 102//72 103//72 88//72
f 102//73 97//73 103//73
f 97//74 87//74 103//74
f 100//75 101//75 90//75
f 100//76 98//76 101//76
f 98//77 85//77 101//77
f 97//78 99//78 87//78
f 97//79 98//79 99//79
f 98//80 86//80 99//80
f 134//111 128//111 41//111 139//111
f 128//112 133//112 138//112 41//112
f 133//113 127//113 42//113 138//113
f 131//114 136//114 141//114 38//114
f 136//115 130//115 39//115 141//115
f 127//116 132//116 137//116 42//116
f 132//117 131//117 38//117 137//117
f 130//118 135//118 140//118 39//118
f 135//119 129//119 40//119 140//119
f 129//120 134//120 139//120 40//120
f 140//81 40//81 145//81
f 145//82 144//82 12//82
f 145//83 139//83 144//83
f 139//84 41//84 144//84
f 144//85 142//85 12//85
f 144//86 138//86 142//86
f 138//87 42//87 142//87
f 142//88 143//88 12//88
f 142//89 137//89 143//89
f 137//90 38//90 143//90
